<svg width="38" height="39" viewBox="0 0 38 39" fill="none" xmlns="http://www.w3.org/2000/svg">
<path d="M16.7305 9.69434C16.3932 10.1774 15.9215 10.5397 15.3154 10.7812C14.7139 11.0182 14.012 11.1367 13.21 11.1367C12.3988 11.1367 11.6787 10.9476 11.0498 10.5693C10.4209 10.1865 9.93327 9.64421 9.58691 8.94238C9.24512 8.24056 9.06966 7.42708 9.06055 6.50195V5.63379C9.06055 4.13444 9.40918 2.97233 10.1064 2.14746C10.8083 1.32259 11.7926 0.910156 13.0596 0.910156C14.0986 0.910156 14.9349 1.17676 15.5684 1.70996C16.2018 2.23861 16.5892 2.99056 16.7305 3.96582H15.418C15.1719 2.64876 14.388 1.99023 13.0664 1.99023C12.1868 1.99023 11.5192 2.30013 11.0635 2.91992C10.6123 3.53516 10.3844 4.42839 10.3799 5.59961V6.41309C10.3799 7.52962 10.6351 8.41829 11.1455 9.0791C11.6559 9.73535 12.3464 10.0635 13.2168 10.0635C13.709 10.0635 14.1396 10.0088 14.5088 9.89941C14.8779 9.79004 15.1833 9.60547 15.4248 9.3457V7.11035H13.1211V6.04395H16.7305V9.69434ZM21.7959 11.1367C20.7933 11.1367 19.9775 10.8086 19.3486 10.1523C18.7197 9.49154 18.4053 8.6097 18.4053 7.50684V7.27441C18.4053 6.54069 18.5443 5.88672 18.8223 5.3125C19.1048 4.73372 19.4967 4.28255 19.998 3.95898C20.5039 3.63086 21.0508 3.4668 21.6387 3.4668C22.6003 3.4668 23.3477 3.78353 23.8809 4.41699C24.4141 5.05046 24.6807 5.95736 24.6807 7.1377V7.66406H19.6699C19.6882 8.39323 19.9001 8.9834 20.3057 9.43457C20.7158 9.88118 21.2354 10.1045 21.8643 10.1045C22.3109 10.1045 22.6891 10.0133 22.999 9.83105C23.3089 9.64876 23.5801 9.40723 23.8125 9.10645L24.585 9.70801C23.9652 10.6605 23.0355 11.1367 21.7959 11.1367ZM21.6387 4.50586C21.1283 4.50586 20.6999 4.69271 20.3535 5.06641C20.0072 5.43555 19.793 5.95508 19.7109 6.625H23.416V6.5293C23.3796 5.88672 23.2064 5.38997 22.8965 5.03906C22.5866 4.68359 22.1673 4.50586 21.6387 4.50586ZM27.8662 1.8125V3.60352H29.2471V4.58105H27.8662V9.16797C27.8662 9.46419 27.9277 9.6875 28.0508 9.83789C28.1738 9.98372 28.3835 10.0566 28.6797 10.0566C28.8255 10.0566 29.026 10.0293 29.2812 9.97461V11C28.9486 11.0911 28.625 11.1367 28.3105 11.1367C27.7454 11.1367 27.3193 10.9658 27.0322 10.624C26.7451 10.2822 26.6016 9.79688 26.6016 9.16797V4.58105H25.2549V3.60352H26.6016V1.8125H27.8662ZM3.84814 22.6304L6.08252 16.1797H7.21045L4.31006 24H3.39697L0.501953 16.1797H1.62451L3.84814 22.6304ZM7.59717 21.0405C7.59717 20.4712 7.70817 19.9591 7.93018 19.5044C8.15576 19.0496 8.46729 18.6987 8.86475 18.4517C9.26579 18.2046 9.72233 18.0811 10.2344 18.0811C11.0257 18.0811 11.6649 18.355 12.1519 18.9028C12.6424 19.4507 12.8877 20.1794 12.8877 21.0889V21.1587C12.8877 21.7244 12.7785 22.2329 12.5601 22.6841C12.3452 23.1317 12.0355 23.4808 11.6309 23.7314C11.2298 23.9821 10.7679 24.1074 10.2451 24.1074C9.45736 24.1074 8.8182 23.8335 8.32764 23.2856C7.84066 22.7378 7.59717 22.0127 7.59717 21.1104V21.0405ZM8.59619 21.1587C8.59619 21.8032 8.74479 22.3206 9.04199 22.7109C9.34277 23.1012 9.74382 23.2964 10.2451 23.2964C10.75 23.2964 11.151 23.0994 11.4482 22.7056C11.7454 22.3081 11.894 21.7531 11.894 21.0405C11.894 20.4032 11.7419 19.8875 11.4375 19.4937C11.1367 19.0962 10.7357 18.8975 10.2344 18.8975C9.74382 18.8975 9.34814 19.0926 9.04736 19.4829C8.74658 19.8732 8.59619 20.4318 8.59619 21.1587ZM15.2134 24H14.2197V15.75H15.2134V24ZM18.1567 16.7812V18.1885H19.2417V18.9565H18.1567V22.5605C18.1567 22.7933 18.2051 22.9688 18.3018 23.0869C18.3984 23.2015 18.5632 23.2588 18.7959 23.2588C18.9105 23.2588 19.068 23.2373 19.2686 23.1943V24C19.0072 24.0716 18.7529 24.1074 18.5059 24.1074C18.0618 24.1074 17.7271 23.9731 17.5015 23.7046C17.2759 23.436 17.1631 23.0547 17.1631 22.5605V18.9565H16.105V18.1885H17.1631V16.7812H18.1567ZM23.9951 24C23.9378 23.8854 23.8913 23.6813 23.8555 23.3877C23.3936 23.8675 22.8421 24.1074 22.2012 24.1074C21.6283 24.1074 21.1574 23.9463 20.7886 23.624C20.4233 23.2982 20.2407 22.8864 20.2407 22.3887C20.2407 21.7835 20.4699 21.3145 20.9282 20.9814C21.3901 20.6449 22.0382 20.4766 22.8726 20.4766H23.8394V20.02C23.8394 19.6727 23.7355 19.397 23.5278 19.1929C23.3201 18.9852 23.014 18.8813 22.6094 18.8813C22.2549 18.8813 21.9577 18.9709 21.7178 19.1499C21.4779 19.3289 21.3579 19.5456 21.3579 19.7998H20.3589C20.3589 19.5098 20.4609 19.2305 20.665 18.9619C20.8727 18.6898 21.152 18.4749 21.5029 18.3174C21.8574 18.1598 22.2459 18.0811 22.6685 18.0811C23.3381 18.0811 23.8626 18.2493 24.2422 18.5859C24.6217 18.9189 24.8187 19.3791 24.833 19.9663V22.6411C24.833 23.1746 24.901 23.599 25.0371 23.9141V24H23.9951ZM22.3462 23.2427C22.6577 23.2427 22.9531 23.1621 23.2324 23.001C23.5117 22.8398 23.714 22.6304 23.8394 22.3726V21.1802H23.0605C21.8431 21.1802 21.2344 21.5365 21.2344 22.249C21.2344 22.5605 21.3382 22.804 21.5459 22.9795C21.7536 23.1549 22.0203 23.2427 22.3462 23.2427ZM26.1543 21.0459C26.1543 20.14 26.3638 19.4202 26.7827 18.8867C27.2017 18.3496 27.7567 18.0811 28.4478 18.0811C29.1567 18.0811 29.71 18.3317 30.1074 18.833L30.1558 18.1885H31.0635V23.8604C31.0635 24.6123 30.8397 25.2049 30.3921 25.6382C29.9481 26.0715 29.3501 26.2881 28.5981 26.2881C28.1792 26.2881 27.7692 26.1986 27.3682 26.0195C26.9671 25.8405 26.661 25.5952 26.4497 25.2837L26.9653 24.6875C27.3914 25.2139 27.9124 25.4771 28.5283 25.4771C29.0117 25.4771 29.3877 25.341 29.6562 25.0688C29.9284 24.7967 30.0645 24.4136 30.0645 23.9194V23.4199C29.667 23.8783 29.1245 24.1074 28.437 24.1074C27.7567 24.1074 27.2052 23.8335 26.7827 23.2856C26.3638 22.7378 26.1543 21.9912 26.1543 21.0459ZM27.1533 21.1587C27.1533 21.814 27.2876 22.3296 27.5562 22.7056C27.8247 23.078 28.2007 23.2642 28.6841 23.2642C29.3107 23.2642 29.7708 22.9795 30.0645 22.4102V19.7568C29.7601 19.2018 29.3035 18.9243 28.6948 18.9243C28.2114 18.9243 27.8337 19.1123 27.5615 19.4883C27.2894 19.8643 27.1533 20.4211 27.1533 21.1587ZM34.979 24.1074C34.1912 24.1074 33.5503 23.8496 33.0562 23.334C32.562 22.8148 32.3149 22.1219 32.3149 21.2554V21.0728C32.3149 20.4963 32.4242 19.9824 32.6426 19.5312C32.8646 19.0765 33.1725 18.722 33.5664 18.4678C33.9639 18.21 34.3936 18.0811 34.8555 18.0811C35.611 18.0811 36.1982 18.3299 36.6172 18.8276C37.0361 19.3254 37.2456 20.0379 37.2456 20.9653V21.3789H33.3086C33.3229 21.9518 33.4894 22.4155 33.8081 22.77C34.1304 23.1209 34.5386 23.2964 35.0327 23.2964C35.3836 23.2964 35.6808 23.2248 35.9243 23.0815C36.1678 22.9383 36.3809 22.7485 36.5635 22.5122L37.1704 22.9849C36.6834 23.7332 35.953 24.1074 34.979 24.1074ZM34.8555 18.8975C34.4544 18.8975 34.1178 19.0443 33.8457 19.3379C33.5736 19.6279 33.4053 20.0361 33.3408 20.5625H36.252V20.4873C36.2233 19.9824 36.0872 19.5921 35.8438 19.3164C35.6003 19.0371 35.2708 18.8975 34.8555 18.8975ZM9.70703 39V29.7578H12.3159C13.12 29.7578 13.8309 29.9355 14.4487 30.291C15.0666 30.6465 15.5426 31.1522 15.877 31.8081C16.2155 32.464 16.3869 33.2173 16.3911 34.0679V34.6582C16.3911 35.5299 16.2218 36.2938 15.8833 36.9497C15.549 37.6056 15.0687 38.1092 14.4424 38.4604C13.8203 38.8117 13.0946 38.9915 12.2651 39H9.70703ZM10.9258 30.7607V38.0034H12.208C13.1475 38.0034 13.8774 37.7114 14.3979 37.1274C14.9227 36.5435 15.1851 35.7119 15.1851 34.6328V34.0933C15.1851 33.0438 14.9375 32.2292 14.4424 31.6494C13.9515 31.0654 13.2533 30.7692 12.3477 30.7607H10.9258ZM19.3301 39H18.1558V32.1318H19.3301V39ZM18.0605 30.3101C18.0605 30.1196 18.1177 29.9588 18.2319 29.8276C18.3504 29.6965 18.5239 29.6309 18.7524 29.6309C18.981 29.6309 19.1545 29.6965 19.2729 29.8276C19.3914 29.9588 19.4507 30.1196 19.4507 30.3101C19.4507 30.5005 19.3914 30.6592 19.2729 30.7861C19.1545 30.9131 18.981 30.9766 18.7524 30.9766C18.5239 30.9766 18.3504 30.9131 18.2319 30.7861C18.1177 30.6592 18.0605 30.5005 18.0605 30.3101ZM21.793 39V33.0396H20.7075V32.1318H21.793V31.4272C21.793 30.6909 21.9897 30.1217 22.3833 29.7197C22.7769 29.3177 23.3333 29.1167 24.0527 29.1167C24.3236 29.1167 24.5923 29.1527 24.8589 29.2246L24.7954 30.1768C24.5965 30.1387 24.3849 30.1196 24.1606 30.1196C23.7798 30.1196 23.4857 30.2318 23.2783 30.4561C23.071 30.6761 22.9673 30.9935 22.9673 31.4082V32.1318H24.4336V33.0396H22.9673V39H21.793ZM26.3125 39V33.0396H25.2271V32.1318H26.3125V31.4272C26.3125 30.6909 26.5093 30.1217 26.9028 29.7197C27.2964 29.3177 27.8529 29.1167 28.5723 29.1167C28.8431 29.1167 29.1118 29.1527 29.3784 29.2246L29.3149 30.1768C29.116 30.1387 28.9045 30.1196 28.6802 30.1196C28.2993 30.1196 28.0052 30.2318 27.7979 30.4561C27.5905 30.6761 27.4868 30.9935 27.4868 31.4082V32.1318H28.9531V33.0396H27.4868V39H26.3125Z" fill="black"/>
</svg>
